<svg xmlns="http://www.w3.org/2000/svg" version="1.1" xmlns:xlink="http://www.w3.org/1999/xlink" xmlns:svgjs="http://svgjs.dev/svgjs" width="800" height="1200" viewBox="0 0 800 1200"><g transform="matrix(1,0,0,1,-5.639599749999945,-3.243750000000091)"><svg viewBox="0 0 64 96" data-background-color="#ffffff" preserveAspectRatio="xMidYMid meet" height="1200" width="800" xmlns="http://www.w3.org/2000/svg" xmlns:xlink="http://www.w3.org/1999/xlink"><g id="tight-bounds" transform="matrix(1,0,0,1,0.4511679799999939,0.25950000000000273)"><svg viewBox="0 0 63.09766404 95.481" height="95.481" width="63.09766404"><g><svg viewBox="0 0 63.09766404 95.481" height="95.481" width="63.09766404"><g><svg viewBox="0 0 63.09766404 95.481" height="95.481" width="63.09766404"><g id="textblocktransform"><svg viewBox="0 0 63.09766404 95.481" height="95.481" width="63.09766404" id="textblock"><g><svg viewBox="0 0 63.09766404 95.481" height="95.481" width="63.09766404"><g><svg viewBox="0 0 63.09766404 95.481" height="95.481" width="63.09766404"><g><svg version="1.1" xmlns="http://www.w3.org/2000/svg" xmlns:xlink="http://www.w3.org/1999/xlink" x="0" y="0" viewBox="0 0 66.084 100" enable-background="new 0 0 66.084 100" xml:space="preserve" id="icon-0" width="63.09766404" height="95.481" class="icon-icon-0" data-fill-palette-color="accent"><path d="M19.354 0L0 6.911V72.915L47.722 100 51.803 98.542V95.92L62.004 92.276V94.899L66.084 93.442V26.551zM62.003 87.944L51.803 91.587 51.802 31.651 9.755 7.761 18.964 4.471 62.003 28.926z" fill="#ffffff" data-fill-palette-color="accent"></path></svg></g></svg></g></svg></g></svg></g></svg></g></svg></g><defs></defs></svg><rect width="63.09766404" height="95.481" fill="none" stroke="none" visibility="hidden"></rect></g></svg></g></svg>