<svg xmlns="http://www.w3.org/2000/svg" version="1.1" xmlns:xlink="http://www.w3.org/1999/xlink" xmlns:svgjs="http://svgjs.dev/svgjs" width="2000" height="469" viewBox="0 0 2000 469"><g transform="matrix(1,0,0,1,-1.2121212121212466,-0.041047157748380414)"><svg viewBox="6.5 0 396 93" data-background-color="#ffffff" preserveAspectRatio="xMidYMid meet" height="469" width="2000" xmlns="http://www.w3.org/2000/svg" xmlns:xlink="http://www.w3.org/1999/xlink"><g id="tight-bounds" transform="matrix(1,0,0,1,0.2400000000000091,0.008139415075902434)"><svg viewBox="0 0 395.52 92.98372116984817" height="92.98372116984817" width="395.52"><g><svg viewBox="0 0 511.53372472796974 120.25765885183912" height="92.98372116984817" width="395.52"><g transform="matrix(1,0,0,1,116.01372472796974,16.620269783430736)"><svg viewBox="0 0 395.52 87.01711928497765" height="87.01711928497765" width="395.52"><g id="textblocktransform"><svg viewBox="0 0 395.52 87.01711928497765" height="87.01711928497765" width="395.52" id="textblock"><g><svg viewBox="0 0 395.52 87.01711928497765" height="87.01711928497765" width="395.52"><g transform="matrix(1,0,0,1,0,0)"><svg width="395.52" viewBox="4.32 -36.43 213.04000000000002 46.879999999999995" height="87.01711928497765" data-palette-color="#3a18c0"><path d="M10.06 0L4.32 0 4.32-33.72 15.58-33.72Q19.07-33.72 21.86-32.79 24.66-31.86 26.29-29.69 27.93-27.51 27.93-23.8L27.93-23.8Q27.93-20.21 26.29-17.9 24.66-15.58 21.86-14.45 19.07-13.33 15.58-13.33L15.58-13.33 10.06-13.33 10.06 0ZM10.06-29.1L10.06-17.9 14.97-17.9Q18.48-17.9 20.37-19.37 22.27-20.85 22.27-23.8L22.27-23.8Q22.27-26.76 20.37-27.93 18.48-29.1 14.97-29.1L14.97-29.1 10.06-29.1ZM29.15 0L22.75 0 14.48-14.89 18.7-18.26 29.15 0ZM40.21 0.61L40.21 0.61Q36.91 0.61 34.82-1.4 32.74-3.42 32.74-6.74L32.74-6.74Q32.74-10.82 36.3-13.05 39.87-15.28 47.7-16.14L47.7-16.14Q47.65-18.21 46.65-19.76 45.65-21.31 43.02-21.31L43.02-21.31Q41.09-21.31 39.28-20.59 37.47-19.87 35.84-18.87L35.84-18.87 33.74-22.58Q35.76-23.9 38.4-24.9 41.04-25.9 44.06-25.9L44.06-25.9Q48.78-25.9 51.08-23.07 53.39-20.24 53.39-15.01L53.39-15.01 53.39 0 48.7 0 48.29-2.83 48.12-2.83Q46.41-1.37 44.43-0.38 42.45 0.61 40.21 0.61ZM42.01-3.86L42.01-3.86Q43.58-3.86 44.91-4.58 46.24-5.3 47.7-6.67L47.7-6.67 47.7-12.57Q42.36-11.87 40.29-10.52 38.23-9.18 38.23-7.2L38.23-7.2Q38.23-5.44 39.29-4.65 40.35-3.86 42.01-3.86ZM66.3 10.08L60.59 10.08 60.59-25.27 65.28-25.27 65.74-22.56 65.86-22.56Q67.48-23.93 69.47-24.91 71.45-25.9 73.55-25.9L73.55-25.9Q78.29-25.9 80.92-22.39 83.54-18.87 83.54-13.04L83.54-13.04Q83.54-8.72 82-5.66 80.46-2.61 77.99-1 75.51 0.61 72.7 0.61L72.7 0.61Q71.02 0.61 69.36-0.11 67.7-0.83 66.13-2.17L66.13-2.17 66.3 2.05 66.3 10.08ZM71.53-4.08L71.53-4.08Q74.14-4.08 75.91-6.35 77.68-8.62 77.68-12.96L77.68-12.96Q77.68-16.8 76.33-19.01 74.97-21.22 71.99-21.22L71.99-21.22Q69.33-21.22 66.3-18.24L66.3-18.24 66.3-6.25Q67.72-5.05 69.05-4.57 70.38-4.08 71.53-4.08ZM95.28 0L89.57 0 89.57-25.27 95.28-25.27 95.28 0ZM92.47-29.79L92.47-29.79Q90.93-29.79 89.98-30.7 89.03-31.62 89.03-33.13L89.03-33.13Q89.03-34.57 89.98-35.47 90.93-36.38 92.47-36.38L92.47-36.38Q94.01-36.38 94.96-35.47 95.92-34.57 95.92-33.13L95.92-33.13Q95.92-31.62 94.96-30.7 94.01-29.79 92.47-29.79ZM111.76 0.61L111.76 0.61Q107.05 0.61 104.23-2.87 101.41-6.35 101.41-12.62L101.41-12.62Q101.41-16.72 102.92-19.7 104.43-22.68 106.89-24.29 109.34-25.9 112.12-25.9L112.12-25.9Q114.25-25.9 115.79-25.15 117.32-24.39 118.81-23.1L118.81-23.1 118.62-27.17 118.62-36.43 124.31-36.43 124.31 0 119.62 0 119.2-2.78 119.03-2.78Q117.59-1.34 115.71-0.37 113.83 0.61 111.76 0.61ZM113.17-4.08L113.17-4.08Q116.08-4.08 118.62-7.01L118.62-7.01 118.62-18.99Q117.25-20.19 115.93-20.7 114.61-21.22 113.3-21.22L113.3-21.22Q110.81-21.22 109.01-18.95 107.22-16.67 107.22-12.65L107.22-12.65Q107.22-8.47 108.78-6.27 110.34-4.08 113.17-4.08ZM137.63 0L131.92 0 131.92-25.27 136.61-25.27 137.07-20.78 137.19-20.78Q138.56-23.22 140.45-24.56 142.35-25.9 144.4-25.9L144.4-25.9Q145.32-25.9 145.98-25.77 146.64-25.63 147.23-25.39L147.23-25.39 146.06-20.53Q145.47-20.68 144.96-20.76 144.45-20.85 143.64-20.85L143.64-20.85Q142.13-20.85 140.45-19.65 138.78-18.46 137.63-15.53L137.63-15.53 137.63 0ZM157.07 0.61L157.07 0.61Q153.77 0.61 151.68-1.4 149.59-3.42 149.59-6.74L149.59-6.74Q149.59-10.82 153.16-13.05 156.72-15.28 164.56-16.14L164.56-16.14Q164.51-18.21 163.51-19.76 162.51-21.31 159.87-21.31L159.87-21.31Q157.94-21.31 156.14-20.59 154.33-19.87 152.69-18.87L152.69-18.87 150.6-22.58Q152.62-23.9 155.26-24.9 157.9-25.9 160.92-25.9L160.92-25.9Q165.63-25.9 167.94-23.07 170.25-20.24 170.25-15.01L170.25-15.01 170.25 0 165.56 0 165.15-2.83 164.98-2.83Q163.27-1.37 161.29-0.38 159.31 0.61 157.07 0.61ZM158.87-3.86L158.87-3.86Q160.43-3.86 161.76-4.58 163.1-5.3 164.56-6.67L164.56-6.67 164.56-12.57Q159.21-11.87 157.15-10.52 155.09-9.18 155.09-7.2L155.09-7.2Q155.09-5.44 156.15-4.65 157.21-3.86 158.87-3.86ZM183.16 0L177.45 0 177.45-25.27 182.14-25.27 182.6-20.78 182.72-20.78Q184.09-23.22 185.98-24.56 187.87-25.9 189.92-25.9L189.92-25.9Q190.85-25.9 191.51-25.77 192.17-25.63 192.76-25.39L192.76-25.39 191.58-20.53Q191-20.68 190.49-20.76 189.97-20.85 189.17-20.85L189.17-20.85Q187.65-20.85 185.98-19.65 184.31-18.46 183.16-15.53L183.16-15.53 183.16 0ZM198 10.45L198 10.45Q197 10.45 196.22 10.3 195.44 10.16 194.76 9.86L194.76 9.86 195.85 5.54Q196.9 5.86 197.61 5.86L197.61 5.86Q199.64 5.86 200.87 4.59 202.1 3.32 202.76 1.34L202.76 1.34 203.3-0.27 193.29-25.27 199.08-25.27 203.54-12.65Q204.11-10.96 204.67-9.13 205.23-7.3 205.81-5.49L205.81-5.49 206.03-5.49Q206.5-7.25 206.99-9.07 207.48-10.89 207.96-12.65L207.96-12.65 211.87-25.27 217.36-25.27 208.16 1.27Q206.62 5.47 204.35 7.96 202.08 10.45 198 10.45Z" opacity="1" transform="matrix(1,0,0,1,0,0)" fill="#ffffff" class="wordmark-text-0" data-fill-palette-color="primary" id="text-0"></path></svg></g></svg></g></svg></g></svg></g><g><svg viewBox="0 0 95.47107127564936 120.25765885183912" height="120.25765885183912" width="95.47107127564936"><g><svg version="1.1" xmlns="http://www.w3.org/2000/svg" xmlns:xlink="http://www.w3.org/1999/xlink" x="8" y="0" viewBox="0 0 66.084 100" enable-background="new 0 0 66.084 100" xml:space="preserve" id="icon-0" width="79.47107127564936" height="120.25765885183912" class="icon-icon-0" data-fill-palette-color="accent"><path d="M19.354 0L0 6.911V72.915L47.722 100 51.803 98.542V95.92L62.004 92.276V94.899L66.084 93.442V26.551zM62.003 87.944L51.803 91.587 51.802 31.651 9.755 7.761 18.964 4.471 62.003 28.926z" fill="#ffffff" data-fill-palette-color="accent"></path></svg></g></svg></g></svg></g><defs></defs></svg><rect width="395.52" height="92.98372116984817" fill="none" stroke="none" visibility="hidden"></rect></g></svg></g></svg>
